# xmcd
#
# Track frame offsets:
#	150
#	11033
#	22870
#	33992
#	46029
#	55340
#	66732
#	77162
#	89963
#	100786
#	111577
#	123044
#	132543
#	141489
#	149643
#	162194
#	172130
#	185606
#	196597
#	207823
#
# Disc length: 2921 seconds
#
# Revision: 1
# Processed by: cddbd v1.5.2PL0 Copyright (c) Steve Scherf et al.
# Submitted via: audiograbber 1.83.01
#
DISCID=2c0b6714
DTITLE=Drifters - Three Classic Albums Plus Singles and Bonus Tracks  [CD4)
DYEAR=2014
DGENRE=Oldies
TTITLE0=Since You've Been Gone
TTITLE1=Try Try Baby
TTITLE2=You Went Back On Your Word
TTITLE3=There You Go
TTITLE4=Just Give Me A Ring
TTITLE5=Don't Dog Me
TTITLE6=Deep Sea Ball
TTITLE7=Let The Boogie Woogie Roll
TTITLE8=If I Didn't Love You Like I Do
TTITLE9=Go! Yes Go!
TTITLE10=I Could Have Told You
TTITLE11=Am I To Be The One
TTITLE12=Santa Claus Is Coming To Town
TTITLE13=Gee
TTITLE14=Cherry Chocolate Twist
TTITLE15=On Bended Knee
TTITLE16=My Only Desire
TTITLE17=Sadie My Lady
TTITLE18=Honky Tonky
TTITLE19=Souvenirs
EXTD=
EXTT0=
EXTT1=
EXTT2=
EXTT3=
EXTT4=
EXTT5=
EXTT6=
EXTT7=
EXTT8=
EXTT9=
EXTT10=
EXTT11=
EXTT12=
EXTT13=
EXTT14=
EXTT15=
EXTT16=
EXTT17=
EXTT18=
EXTT19=
PLAYORDER=
